<svg xmlns="http://www.w3.org/2000/svg" xmlns:xlink="http://www.w3.org/1999/xlink" width="50" height="50" viewBox="0 0 50 50">
  <defs>
    <clipPath id="clip-logo">
      <rect width="50" height="50"/>
    </clipPath>
  </defs>
  <g id="logo" clip-path="url(#clip-logo)">
    <g id="Rectangle_1" data-name="Rectangle 1" fill="none" stroke="#e5c07b" stroke-width="4">
      <rect width="50" height="50" rx="15" stroke="none"/>
      <rect x="2" y="2" width="46" height="46" rx="13" fill="none"/>
    </g>
    <path id="Path_5" data-name="Path 5" d="M3.528-17.04,8.136-4.152,12.7-17.04h3.48L9.528,0H6.744L.048-17.04Zm20.352.048h3.048l1.92,5.64,1.92-5.64H33.84l-2.9,7.752L33.1-3.792,37.92-17.04h3.6L34.584,0H31.8L28.848-7.152,25.9,0H23.112L16.224-17.04h3.552L24.624-3.792,26.736-9.24Z" transform="translate(4 34)" fill="#e5c07b"/>
    <path id="Path_1" data-name="Path 1" d="M88.464,55.5l8.5-21.9" transform="translate(-49.208 -23.616) rotate(1)" fill="#e5c07b" stroke="#e5c07b" stroke-width="1"/>
    <path id="Path_2" data-name="Path 2" d="M89.459,50.245l7.774-16.638" transform="translate(-53.792 -17.754) rotate(-5)" fill="none" stroke="#e5c07b" stroke-width="1"/>
    <path id="Path_3" data-name="Path 3" d="M57.928,49.192,52.636,35.436" transform="matrix(0.999, -0.052, 0.052, 0.999, -51.037, -18.417)" fill="none" stroke="#e5c07b" stroke-width="1"/>
    <path id="Path_4" data-name="Path 4" d="M62.079,59.006l-9.443-23.57" transform="matrix(0.999, 0.035, -0.035, 0.999, -47.163, -28.057)" fill="none" stroke="#e5c07b" stroke-width="1"/>
  </g>
</svg>
